<?xml version="1.0" standalone="no"?>
<!DOCTYPE svg PUBLIC "-//W3C//DTD SVG 20010904//EN"
 "http://www.w3.org/TR/2001/REC-SVG-20010904/DTD/svg10.dtd">
<svg version="1.0" xmlns="http://www.w3.org/2000/svg"
 width="96.000000pt" height="96.000000pt" viewBox="0 0 96.000000 96.000000"
 preserveAspectRatio="xMidYMid meet">
<metadata>
Created by potrace 1.14, written by Peter Selinger 2001-2017
</metadata>
<g transform="translate(0.000000,96.000000) scale(0.100000,-0.100000)"
fill="#000000" stroke="none">
<path d="M203 749 c-110 -54 -183 -214 -179 -389 1 -74 5 -90 29 -126 34 -50
79 -73 143 -70 82 2 136 55 234 229 24 42 47 77 50 77 4 0 31 -39 60 -87 112
-185 156 -224 245 -220 64 4 98 24 127 80 20 36 23 56 22 147 -2 139 -33 225
-113 313 -68 75 -167 85 -245 26 -24 -19 -52 -46 -62 -61 l-18 -26 -45 45
c-80 81 -166 103 -248 62z m523 -78 c67 -29 114 -135 122 -271 4 -76 2 -88
-18 -113 -50 -63 -95 -27 -213 166 -85 137 -85 138 -30 188 51 48 83 55 139
30z m-386 -18 c30 -21 89 -85 90 -97 0 -16 -170 -265 -192 -280 -30 -21 -61
-20 -89 3 -22 18 -24 26 -23 108 1 55 8 105 18 133 45 122 130 179 196 133z"/>
</g>
</svg>
